HIERARCHY
ROOT Pelvis
{
	OFFSET 0.000000 0.000000 0.000000
	CHANNELS 6 Xposition Yposition Zposition Xrotation Yrotation Zrotation
	JOINT LeftUpLeg_virtual
	{
		OFFSET 0.000000 0.000000 0.000000
		CHANNELS 3 Xrotation Yrotation Zrotation
		JOINT LeftUpLeg
		{
			OFFSET 18.735201 -5.666702 -4.541200
			CHANNELS 3 Xrotation Yrotation Zrotation
			JOINT LeftLeg
			{
				OFFSET -0.021200 -31.938179 0.493100
				CHANNELS 3 Xrotation Yrotation Zrotation
				JOINT LeftFoot
				{
					OFFSET 0.021200 -31.938179 -4.336299
					CHANNELS 3 Xrotation Yrotation Zrotation
					JOINT LeftToeBase
					{
						OFFSET 0.943001 -26.722000 15.023500
						CHANNELS 3 Xrotation Yrotation Zrotation
						End Site
						{
							OFFSET 0 0 0
						}
					}
				}
			}
		}
	}
	JOINT RightUpLeg_virtual
	{
		OFFSET 0.000000 0.000000 0.000000
		CHANNELS 3 Xrotation Yrotation Zrotation
		JOINT RightUpLeg
		{
			OFFSET -18.735201 -5.666702 -4.541200
			CHANNELS 3 Xrotation Yrotation Zrotation
			JOINT RightLeg
			{
				OFFSET 0.018946 -31.938133 0.493100
				CHANNELS 3 Xrotation Yrotation Zrotation
				JOINT RightFoot
				{
					OFFSET -0.018946 -31.938126 -4.336299
					CHANNELS 3 Xrotation Yrotation Zrotation
					JOINT RightToeBase
					{
						OFFSET -0.943001 -26.722004 15.023500
						CHANNELS 3 Xrotation Yrotation Zrotation
						End Site
						{
							OFFSET 0 0 0
						}
					}
				}
			}
		}
	}
	JOINT Hips_virtual
	{
		OFFSET 0.000000 0.000000 0.000000
		CHANNELS 3 Xrotation Yrotation Zrotation
		JOINT Hips
		{
			OFFSET -0.000000 -0.000000 -0.000000
			CHANNELS 3 Xrotation Yrotation Zrotation
			JOINT Spine
			{
				OFFSET 0.000000 10.199997 -0.299500
				CHANNELS 3 Xrotation Yrotation Zrotation
				JOINT Spine1
				{
					OFFSET 0.000000 11.900002 -1.516600
					CHANNELS 3 Xrotation Yrotation Zrotation
					JOINT Spine2
					{
						OFFSET 0.000000 13.600006 -2.842500
						CHANNELS 3 Xrotation Yrotation Zrotation
						JOINT Neck_virtual
						{
							OFFSET 0.000000 0.000000 0.000000
							CHANNELS 3 Xrotation Yrotation Zrotation
							JOINT Neck
							{
								OFFSET 0.000000 9.624100 -2.890100
								CHANNELS 3 Xrotation Yrotation Zrotation
								JOINT Head
								{
									OFFSET 0.000000 14.068802 -1.351900
									CHANNELS 3 Xrotation Yrotation Zrotation
									End Site
									{
										OFFSET 0 0 0
									}
								}
							}
						}
						JOINT LeftShoulder_virtual
						{
							OFFSET 0.000000 0.000000 0.000000
							CHANNELS 3 Xrotation Yrotation Zrotation
							JOINT LeftShoulder
							{
								OFFSET 15.263000 10.923401 -0.547700
								CHANNELS 3 Xrotation Yrotation Zrotation
								JOINT LeftArm
								{
									OFFSET 25.438599 -2.830597 -13.032500
									CHANNELS 3 Xrotation Yrotation Zrotation
									JOINT LeftForeArm
									{
										OFFSET 29.960503 0.000000 0.000000
										CHANNELS 3 Xrotation Yrotation Zrotation
										JOINT LeftHand
										{
											OFFSET 27.849251 0.000000 0.000000
											CHANNELS 3 Xrotation Yrotation Zrotation
											End Site
											{
												OFFSET 0 0 0
											}
										}
									}
								}
							}
						}
						JOINT RightShoulder_virtual
						{
							OFFSET 0.000000 0.000000 0.000000
							CHANNELS 3 Xrotation Yrotation Zrotation
							JOINT RightShoulder
							{
								OFFSET -15.263000 10.923401 -0.547700
								CHANNELS 3 Xrotation Yrotation Zrotation
								JOINT RightArm
								{
									OFFSET -25.438599 -2.830597 -13.032500
									CHANNELS 3 Xrotation Yrotation Zrotation
									JOINT RightForeArm
									{
										OFFSET -29.960503 0.000000 0.000000
										CHANNELS 3 Xrotation Yrotation Zrotation
										JOINT RightHand
										{
											OFFSET -27.849251 0.000000 0.000000
											CHANNELS 3 Xrotation Yrotation Zrotation
											End Site
											{
												OFFSET 0 0 0
											}
										}
									}
								}
							}
						}
					}
				}
			}
		}
	}
}
MOTION
Frames: 5
Frame Time: 0.03333333
6.112563 71.093094 132.612213 0.000000 0.000000 0.000000 8.752157 -9.129224 0.846285 26.257417 29.229313 11.787167 24.068361 18.360339 -5.642008 -23.560654 -0.627179 -33.732221 0.000000 0.000000 0.000000 9.448982 -15.107779 2.903590 -88.705347 -3.796716 -12.903106 61.508278 4.143335 -6.084759 8.479886 6.032793 5.980289 0.000000 0.000000 0.000000 5.780032 -14.442911 -0.242026 -0.802482 -3.904254 -0.624131 4.722582 -4.404278 1.345361 4.343085 -6.434989 0.260527 0.000000 0.000000 0.000000 4.854650 -6.546646 0.553739 1.835219 -0.193189 2.450786 0.000000 0.000000 0.000000 3.724059 -6.010145 -0.035020 -0.964184 -11.969043 -19.732927 -57.268223 -15.743972 -36.189822 -6.435190 -73.468083 14.033424 0.000000 0.000000 0.000000 4.338099 -5.741238 1.175819 -0.646999 2.297394 -5.907509 -39.225978 48.546881 20.959986 0.524075 65.137137 -0.495316 0.000000 0.000000 0.000000 
5.658088 70.499084 136.137573 0.000000 0.000000 0.000000 11.261442 -14.433878 0.311812 29.341523 32.410801 10.704744 17.678182 19.499743 -4.575590 -14.586697 -5.542269 -32.868008 0.000000 0.000000 0.000000 10.394150 -19.936485 1.399098 -88.799084 -5.136375 -9.154780 64.641880 4.174656 -6.567661 4.974822 6.273666 5.905991 0.000000 0.000000 0.000000 7.697989 -19.725588 -0.997156 0.177031 -2.385708 -0.525772 4.032475 -6.276105 1.328501 4.427193 -10.030175 1.432983 0.000000 0.000000 0.000000 5.192627 -10.146392 1.913542 1.551183 0.591865 2.848998 0.000000 0.000000 0.000000 4.394530 -9.443653 1.500028 -3.157339 -15.625711 -17.891213 -55.421839 -26.016057 -43.959770 -6.513860 -51.457559 10.780558 0.000000 0.000000 0.000000 4.662987 -9.006801 2.240173 -0.325963 0.278286 0.256263 -23.214560 28.530329 8.214873 0.524075 65.137137 -0.495316 0.000000 0.000000 0.000000 
4.846169 70.186089 139.784790 0.000000 0.000000 0.000000 13.706147 -19.506793 -0.266412 29.648482 35.250227 10.883739 13.664721 20.359617 -3.376337 -2.777516 -9.981159 -28.981944 0.000000 0.000000 0.000000 11.333258 -24.223001 -0.076701 -88.108382 -5.970229 -6.076737 67.016491 4.136865 -7.145775 0.797390 6.619667 6.360175 0.000000 0.000000 0.000000 9.743625 -24.275618 -1.810674 1.021771 -0.889334 -0.433849 3.551142 -7.683252 1.614192 4.569047 -12.606481 2.353465 0.000000 0.000000 0.000000 5.635148 -12.722862 2.949234 1.274981 1.353716 2.984685 0.000000 0.000000 0.000000 5.137229 -11.942955 2.949271 -4.993788 -17.936845 -15.845972 -54.957239 -34.828958 -51.934064 -6.054815 -33.754583 8.309583 0.000000 0.000000 0.000000 5.162356 -11.564126 3.000033 0.020514 -1.836766 4.764102 -15.727725 11.409014 4.308247 0.524075 65.137137 -0.495316 0.000000 0.000000 0.000000 
3.766310 70.093918 143.639664 0.000000 0.000000 0.000000 15.881749 -24.974160 -0.627036 27.699349 37.367736 11.521249 12.841183 21.195749 -2.546615 9.758239 -12.349137 -22.232296 0.000000 0.000000 0.000000 11.664432 -28.439397 -1.429990 -86.392358 -6.128460 -3.198765 68.292548 4.218721 -7.568393 -3.079428 6.937361 7.203383 0.000000 0.000000 0.000000 11.606453 -28.993053 -2.571616 1.607818 -0.385066 -0.544332 3.315445 -8.493397 2.072943 4.694807 -14.084993 2.840163 0.000000 0.000000 0.000000 5.966792 -14.173235 3.472021 0.982800 2.067061 2.964431 0.000000 0.000000 0.000000 5.741330 -13.454295 3.946873 -6.460749 -19.271217 -14.488520 -55.843965 -40.009995 -59.458484 -5.586113 -23.851362 5.799824 0.000000 0.000000 0.000000 5.832520 -13.186410 3.455184 0.240863 -3.365642 7.658216 -11.823182 -0.652481 3.310518 0.524075 65.137137 -0.495316 0.000000 0.000000 0.000000 
2.562494 70.483055 147.723587 0.000000 0.000000 0.000000 17.608889 -30.627955 -0.917387 22.417456 38.369592 13.680686 16.551696 22.035872 -2.163004 19.581679 -11.954277 -14.080294 0.000000 0.000000 0.000000 11.457046 -32.408267 -2.745048 -83.140191 -5.231661 -0.128362 68.191734 4.377966 -7.544588 -6.232844 7.350988 8.511202 0.000000 0.000000 0.000000 12.816121 -33.990122 -3.220431 1.846332 -0.026233 -0.589931 3.204483 -8.826355 2.456277 4.827605 -14.617124 2.927642 0.000000 0.000000 0.000000 6.022371 -14.606897 3.489526 0.632449 2.680998 2.937528 0.000000 0.000000 0.000000 6.084224 -14.108124 4.286960 -7.471156 -19.977632 -14.084458 -57.010097 -41.270353 -65.113751 -5.281195 -21.441079 3.127821 0.000000 0.000000 0.000000 6.295809 -13.884861 3.524664 0.279227 -3.839893 9.498496 -10.102654 -7.511939 3.069872 0.524075 65.137137 -0.495316 0.000000 0.000000 0.000000 
